# xmcd
#
# Track frame offsets:
#	150
#	11267
#	22501
#	36125
#	46020
#	56973
#	65208
#	78069
#	89450
#	99880
#	112845
#	126101
#	139240
#	150924
#	162326
#	173245
#	185887
#	195149
#	207244
#	217048
#	231718
#	245478
#	258328
#	269721
#	281056
#	296696
#	311884
#	324648
#
# Disc length: 4458 seconds
#
# Revision: 0
# Processed by: cddbd v1.5.2PL0 Copyright (c) Steve Scherf et al.
# Submitted via: audiograbber 1.83.01
#
DISCID=9411681c
DTITLE=Various Artist - Skiffle CD2
DYEAR=2007
DGENRE=Skiffle
TTITLE0=Lonnie Donegan - Rock Island Line
TTITLE1=The City Ramblers - When The Saints Go Marching In
TTITLE2=Ken Colyer - Muleskinner Blues
TTITLE3=Chris Barber - Gypsy Davy
TTITLE4=Johnny Parker's Washboard Band - Up There
TTITLE5=Lonnie Donegan - I'm Alabammy Bound
TTITLE6=Ken Colyer -  Stack O Lee Blues
TTITLE7=The City Ramblers - Midnight Special
TTITLE8=The Vipers - 10,000 Years Ago
TTITLE9=The Clyde Valley Stompers - Old Time Religion
TTITLE10=Bery Bryden's Backroom Skiffle - Kansas City Blues
TTITLE11=Ken Colyer - K.C. Moan
TTITLE12=Alan Lomax and The Ramblers - Hard Case
TTITLE13=Lonnie Donegan - Dead Or Alive
TTITLE14=Johnny Parker's Barrelhouse Four - Mr Freddy Blues
TTITLE15=The City Ramblers - 2.19 Blues
TTITLE16=Chris Barber - Can't You Line 'Em
TTITLE17=Ken Colyer - Downbound Train
TTITLE18=Lonnie Donegan - Worried Man Blues
TTITLE19=Lazy Ade's Late Hour Boys - Hook Line And Sinker
TTITLE20=The City Ramblers - 900 Miles
TTITLE21=Johnny Parker's Barrelhouse Four - Hold That Thing
TTITLE22=Ken Colyer - Casey Jones
TTITLE23=Lazy Ade's Big Four - Won't You Come Over To My House Baby
TTITLE24=Bob Wallis' Washboard Beaters - It's Tight Like That
TTITLE25=The Original London Blue Blowers - Fag Paper Stomp
TTITLE26=Arthur Baird - Union Train
TTITLE27=Bob Wallis' Washboard Beaters - Crawdad Hole
EXTD=
EXTT0=1954
EXTT1=1956
EXTT2=1956
EXTT3=
EXTT4=
EXTT5=
EXTT6=
EXTT7=
EXTT8=
EXTT9=
EXTT10=
EXTT11=
EXTT12=
EXTT13=
EXTT14=
EXTT15=
EXTT16=
EXTT17=
EXTT18=
EXTT19=
EXTT20=
EXTT21=
EXTT22=
EXTT23=
EXTT24=
EXTT25=
EXTT26=
EXTT27=
PLAYORDER=
